<?xml version="1.0" encoding="UTF-8"?><svg id="Layer_2" xmlns="http://www.w3.org/2000/svg" viewBox="0 0 541.21 99"><defs><style>.cls-1{fill:#fff;}</style></defs><g id="Text"><g><g><path class="cls-1" d="M.24,55.3c0-.42-.02-.92-.05-1.51-.03-.59-.06-1.19-.07-1.8-.02-.61-.04-1.18-.07-1.7-.03-.53-.05-.94-.05-1.22H2.88c.03,.83,.06,1.63,.07,2.4s.06,1.26,.12,1.49h.14c.58-1.22,1.54-2.26,2.88-3.14,1.34-.88,2.91-1.32,4.7-1.32,1.47,0,2.82,.38,4.03,1.13,1.22,.75,2.1,1.98,2.64,3.67,.7-1.66,1.75-2.88,3.14-3.65,1.39-.77,2.86-1.15,4.39-1.15,1.73,0,3.14,.27,4.22,.82,1.09,.54,1.94,1.26,2.57,2.14,.62,.88,1.06,1.9,1.3,3.05,.24,1.15,.36,2.34,.36,3.55v13.2h-2.88v-13.06c0-.9-.08-1.77-.24-2.62-.16-.85-.44-1.61-.84-2.28-.4-.67-.96-1.21-1.68-1.61-.72-.4-1.66-.6-2.81-.6-1.34,0-2.45,.25-3.31,.74-.86,.5-1.54,1.13-2.04,1.9-.5,.77-.85,1.6-1.06,2.5-.21,.9-.31,1.74-.31,2.54v12.48h-2.88v-13.34c0-2.05-.38-3.7-1.13-4.94-.75-1.25-1.91-1.87-3.48-1.87-1.06,0-2.06,.18-3,.55-.94,.37-1.76,.93-2.45,1.68-.69,.75-1.23,1.7-1.63,2.83-.4,1.14-.6,2.47-.6,4.01v11.09H.24v-15.94Z"/><path class="cls-1" d="M60.72,67.06c-1.12,1.7-2.5,2.91-4.15,3.65-1.65,.74-3.46,1.1-5.45,1.1-1.7,0-3.23-.29-4.61-.86-1.38-.58-2.56-1.38-3.55-2.42-.99-1.04-1.75-2.27-2.28-3.7-.53-1.42-.79-3-.79-4.73s.27-3.2,.82-4.61c.54-1.41,1.31-2.63,2.3-3.67,.99-1.04,2.16-1.86,3.5-2.45,1.34-.59,2.83-.89,4.46-.89s3.19,.3,4.49,.89c1.3,.59,2.38,1.38,3.26,2.35,.88,.98,1.54,2.09,1.99,3.34,.45,1.25,.67,2.51,.67,3.79v2.02h-18.62c0,.61,.12,1.39,.36,2.33,.24,.94,.68,1.86,1.32,2.76,.64,.9,1.5,1.66,2.57,2.3,1.07,.64,2.46,.96,4.15,.96,1.47,0,2.9-.35,4.27-1.06,1.38-.7,2.43-1.66,3.17-2.88l2.11,1.78Zm-2.21-8.78c0-.99-.2-1.92-.6-2.78-.4-.86-.94-1.62-1.63-2.28-.69-.66-1.5-1.18-2.45-1.56-.94-.38-1.94-.58-3-.58-1.57,0-2.87,.32-3.91,.96-1.04,.64-1.86,1.38-2.47,2.21-.61,.83-1.04,1.64-1.3,2.42-.26,.78-.38,1.32-.38,1.61h15.74Z"/><path class="cls-1" d="M78.67,51.65h-6.34v14.45c0,.99,.27,1.76,.82,2.3,.54,.54,1.3,.82,2.26,.82,.54,0,1.1-.07,1.66-.22,.56-.14,1.1-.33,1.61-.55l.24,2.59c-.54,.19-1.17,.37-1.87,.53-.7,.16-1.33,.24-1.87,.24-1.02,0-1.9-.15-2.64-.46-.74-.3-1.33-.71-1.78-1.22-.45-.51-.78-1.11-.98-1.8-.21-.69-.31-1.43-.31-2.23v-14.45h-4.8v-2.59h4.8v-6.38h2.88v6.38h6.34v2.59Z"/><path class="cls-1" d="M101.04,61.92c0,1.09,0,2.06,.02,2.93,.02,.86,.04,1.66,.07,2.4,.03,.74,.07,1.42,.12,2.06,.05,.64,.12,1.28,.22,1.92h-2.69c-.19-1.09-.29-2.29-.29-3.6h-.1c-.83,1.44-1.86,2.5-3.1,3.17-1.23,.67-2.79,1.01-4.68,1.01-.96,0-1.9-.12-2.83-.36-.93-.24-1.76-.62-2.5-1.15-.74-.53-1.34-1.21-1.8-2.04-.46-.83-.7-1.84-.7-3.02,0-1.7,.43-3.04,1.3-4.03,.86-.99,1.93-1.74,3.19-2.23,1.26-.5,2.61-.82,4.03-.96,1.42-.14,2.68-.22,3.77-.22h3.36v-1.34c0-1.92-.59-3.3-1.78-4.13-1.18-.83-2.67-1.25-4.46-1.25-2.56,0-4.82,.83-6.77,2.5l-1.68-1.97c1.06-1.02,2.37-1.8,3.94-2.33,1.57-.53,3.07-.79,4.51-.79,2.69,0,4.83,.63,6.43,1.9,1.6,1.26,2.4,3.3,2.4,6.12v5.42Zm-5.76-1.82c-1.22,0-2.39,.08-3.53,.24-1.14,.16-2.16,.43-3.07,.82-.91,.38-1.64,.9-2.18,1.54-.54,.64-.82,1.44-.82,2.4,0,.67,.15,1.27,.46,1.8,.3,.53,.7,.96,1.18,1.3,.48,.34,1.02,.59,1.61,.77,.59,.18,1.19,.26,1.8,.26,1.54,0,2.8-.22,3.79-.67,.99-.45,1.78-1.03,2.38-1.75,.59-.72,1-1.54,1.22-2.45,.22-.91,.34-1.83,.34-2.76v-1.49h-3.17Z"/></g><g><path class="cls-1" d="M393.62,37.42c-.58,0-1.12,.02-1.63,.07-.51,.05-1.02,.12-1.55,.22v10.83h3.61c2.02,0,3.68-.47,4.98-1.41s1.95-2.32,1.95-4.15-.59-3.21-1.77-4.15c-1.18-.94-3.05-1.41-5.6-1.41Z"/><path class="cls-1" d="M211.1,37.35c-2.94,0-5.31,1.07-7.11,3.21-1.81,2.14-2.71,5.41-2.71,9.79s.89,7.66,2.67,9.82c1.78,2.17,4.19,3.25,7.22,3.25s5.37-1.08,7.15-3.25c1.78-2.17,2.67-5.44,2.67-9.82s-.89-7.58-2.67-9.75c-1.78-2.17-4.19-3.25-7.22-3.25Z"/><path class="cls-1" d="M422.24,51.32c1.27-3.19,1.97-6.67,1.97-10.32,0-15.46-12.54-28-28-28-7.05,0-13.49,2.61-18.41,6.91-2.6-.59-5.31-.91-8.09-.91-.74,0-1.48,.03-2.21,.07-6.68-8.56-17.09-14.07-28.79-14.07s-21.29,5.09-27.99,13.08c-5.14-6.16-12.86-10.08-21.51-10.08-10.4,0-19.47,5.68-24.3,14.1-3.82-1.35-7.92-2.1-12.2-2.1-3.23,0-6.35,.42-9.33,1.21-3.04-12.18-14.04-21.21-27.17-21.21s-24.48,9.32-27.3,21.8c-4.03-1.8-8.5-2.8-13.2-2.8-3.94,0-7.71,.7-11.2,1.98-5.97-4.39-13.33-6.98-21.3-6.98-19.88,0-36,16.12-36,36s16.12,36,36,36c6.78,0,13.13-1.88,18.55-5.14,4.23,2.01,8.96,3.14,13.95,3.14,.56,0,1.12-.01,1.68-.04,4.68,8.94,14.03,15.04,24.82,15.04s20.86-6.58,25.34-16.08c6.55,6.24,15.41,10.08,25.16,10.08,8.34,0,16.03-2.8,22.17-7.51,5.02,7.54,13.59,12.51,23.33,12.51,13.55,0,24.85-9.63,27.44-22.42,4.06,1.55,8.46,2.42,13.06,2.42,.74,0,1.48-.03,2.21-.07,6.68,8.56,17.09,14.07,28.79,14.07,10.29,0,19.58-4.26,26.21-11.12,3.67,4.35,9.15,7.12,15.29,7.12,11.05,0,20-8.95,20-20,0-6.97-3.57-13.1-8.97-16.68Zm-239.06-13.51c-.22,1.95-.51,4.13-.87,6.54-.36,2.41-.78,4.94-1.26,7.58-.48,2.65-.99,5.18-1.52,7.58-.53,2.41-1.07,4.59-1.62,6.54-.55,1.95-1.07,3.46-1.55,4.51-.72,.67-1.9,1.23-3.54,1.66-1.64,.43-3.32,.65-5.06,.65-2.26,0-4.18-.3-5.74-.9-1.57-.6-2.52-1.46-2.85-2.56-.63-1.93-1.3-4.21-2.02-6.86-.72-2.65-1.49-5.56-2.31-8.74-.67,3.13-1.37,6.19-2.09,9.17-.72,2.99-1.37,5.52-1.95,7.58-.72,.67-1.81,1.23-3.25,1.66-1.44,.43-3.03,.65-4.77,.65-2.17,0-4.13-.3-5.89-.9-1.76-.6-2.9-1.46-3.43-2.56-.43-.87-.9-2.16-1.41-3.86-.51-1.71-1.02-3.66-1.55-5.85-.53-2.19-1.07-4.56-1.63-7.11-.55-2.55-1.06-5.1-1.52-7.66-.46-2.55-.88-5.04-1.26-7.48-.39-2.43-.67-4.66-.87-6.68,.67-.63,1.61-1.2,2.82-1.73,1.2-.53,2.5-.79,3.9-.79,1.83,0,3.33,.4,4.51,1.19,1.18,.79,1.91,2.13,2.2,4.01,.77,4.91,1.41,9,1.91,12.28,.51,3.28,.91,5.96,1.23,8.05,.31,2.09,.54,3.72,.69,4.88,.14,1.16,.29,2.07,.43,2.74h.36c.43-1.93,.84-3.71,1.23-5.35,.39-1.64,.78-3.29,1.19-4.95,.41-1.66,.83-3.44,1.26-5.35,.43-1.9,.89-4.08,1.37-6.54,.53-.24,1.36-.52,2.49-.83,1.13-.31,2.27-.47,3.43-.47,2.02,0,3.71,.3,5.06,.9,1.35,.6,2.17,1.48,2.46,2.64,.53,1.98,1.02,3.82,1.48,5.53,.46,1.71,.9,3.35,1.34,4.91,.43,1.57,.85,3.12,1.26,4.66,.41,1.54,.81,3.15,1.19,4.84h.36c.43-2.94,.82-5.74,1.16-8.41,.34-2.67,.65-5.3,.94-7.87,.29-2.58,.58-5.13,.87-7.66,.29-2.53,.58-5.09,.87-7.69,1.78-1.01,3.68-1.52,5.71-1.52,1.78,0,3.32,.39,4.62,1.16,1.3,.77,1.95,2.07,1.95,3.9,0,1.06-.11,2.56-.32,4.51Zm49.08,22.54c-1.16,2.91-2.76,5.35-4.8,7.3-2.05,1.95-4.47,3.43-7.26,4.44-2.79,1.01-5.83,1.52-9.1,1.52s-6.31-.51-9.1-1.52c-2.79-1.01-5.2-2.5-7.22-4.48-2.02-1.97-3.61-4.41-4.77-7.3-1.16-2.89-1.73-6.21-1.73-9.97s.59-7.08,1.77-9.97c1.18-2.89,2.79-5.31,4.84-7.26,2.05-1.95,4.45-3.43,7.22-4.44,2.77-1.01,5.77-1.52,8.99-1.52s6.22,.51,8.99,1.52c2.77,1.01,5.19,2.49,7.26,4.44,2.07,1.95,3.69,4.37,4.88,7.26,1.18,2.89,1.77,6.21,1.77,9.97s-.58,7.09-1.73,10Zm48.61,10.44c-.67,.67-1.65,1.19-2.93,1.55-1.28,.36-2.81,.54-4.59,.54s-3.47-.27-5.06-.79c-1.59-.53-2.89-1.81-3.9-3.83l-7.15-14.59c-.72-1.49-1.37-2.9-1.95-4.23-.58-1.32-1.2-2.85-1.88-4.59l-.51,.14c.24,3.03,.37,5.84,.4,8.41,.02,2.58,.04,5.04,.04,7.4v11.49c-.53,.1-1.33,.22-2.38,.36-1.06,.15-2.14,.22-3.25,.22-2.46,0-4.15-.42-5.09-1.26-.94-.84-1.41-2.35-1.41-4.51V30.77c.67-.96,1.71-1.69,3.11-2.17,1.4-.48,2.89-.72,4.48-.72,1.78,0,3.48,.28,5.09,.83,1.61,.55,2.9,1.82,3.86,3.79l7.22,14.59c.72,1.49,1.37,2.9,1.95,4.23,.58,1.33,1.2,2.85,1.88,4.59l.29-.07c-.19-2.31-.3-4.49-.33-6.54-.02-2.05-.04-4.01-.04-5.89v-15.1c.53-.1,1.32-.22,2.38-.36,1.06-.14,2.14-.22,3.25-.22,2.46,0,4.15,.42,5.09,1.26,.94,.84,1.41,2.35,1.41,4.51v37.27Zm48.54-10.33c-1.16,2.89-2.81,5.3-4.95,7.22-2.14,1.93-4.71,3.37-7.69,4.33-2.99,.96-6.28,1.44-9.9,1.44-.82,0-1.76-.02-2.82-.07-1.06-.05-2.16-.15-3.29-.29-1.13-.15-2.26-.33-3.39-.54-1.13-.22-2.18-.52-3.14-.9-2.65-1.01-3.97-2.77-3.97-5.27V32.65c0-1.01,.28-1.79,.83-2.35,.55-.55,1.31-1,2.28-1.34,2.07-.67,4.26-1.12,6.57-1.34,2.31-.22,4.38-.32,6.21-.32,3.76,0,7.16,.46,10.22,1.37,3.06,.92,5.68,2.32,7.87,4.23,2.19,1.9,3.89,4.3,5.09,7.19,1.2,2.89,1.81,6.31,1.81,10.26s-.58,7.22-1.73,10.11Zm39.94,10.87c-.77,.79-1.83,1.19-3.18,1.19h-21.09c-2.07,0-3.71-.6-4.91-1.81-1.21-1.2-1.81-2.84-1.81-4.91v-30.55c0-2.07,.6-3.71,1.81-4.91,1.2-1.2,2.84-1.81,4.91-1.81h23.84c.34,.53,.64,1.2,.9,2.02,.26,.82,.4,1.73,.4,2.75,0,1.78-.39,3.08-1.16,3.9-.77,.82-1.83,1.23-3.18,1.23h-15.24v6.72h16.25c.34,.53,.64,1.2,.9,2.02,.26,.82,.4,1.73,.4,2.75,0,1.78-.39,3.07-1.16,3.86-.77,.79-1.83,1.19-3.18,1.19h-13.22v7.58h18.56c.34,.53,.64,1.23,.9,2.1,.26,.87,.4,1.81,.4,2.82,0,1.78-.39,3.07-1.16,3.86Zm43.23,.36c-1.28,.89-2.71,1.34-4.3,1.34-1.06,0-1.97-.12-2.75-.36-.77-.24-1.44-.58-2.02-1.01-.58-.43-1.11-.96-1.59-1.59-.48-.63-.94-1.3-1.37-2.02l-6.14-9.9h-3.83v14.08c-.53,.14-1.35,.29-2.46,.43-1.11,.15-2.24,.22-3.39,.22-2.55,0-4.32-.43-5.31-1.3-.99-.87-1.48-2.43-1.48-4.69V32.65c0-1.01,.28-1.79,.83-2.35,.55-.55,1.31-1,2.28-1.34,1.64-.58,3.54-1,5.71-1.26,2.17-.26,4.48-.4,6.93-.4,6.65,0,11.65,1.41,15.02,4.23,3.37,2.82,5.06,6.59,5.06,11.3,0,2.74-.71,5.19-2.13,7.33-1.42,2.14-3.31,3.91-5.67,5.31,.91,1.25,1.84,2.46,2.78,3.61,.94,1.16,1.82,2.26,2.64,3.32,.82,1.06,1.55,2.05,2.2,2.96,.65,.92,1.19,1.73,1.63,2.46-.48,1.69-1.36,2.97-2.64,3.86Z"/><path class="cls-1" d="M307.02,37.49c-.67,0-1.36,.02-2.06,.07-.7,.05-1.41,.12-2.13,.22v25.14c.53,.1,1.18,.18,1.95,.25,.77,.07,1.49,.11,2.17,.11,3.32,0,6.02-1.06,8.09-3.18,2.07-2.12,3.11-5.3,3.11-9.53s-1.01-7.6-3.03-9.79c-2.02-2.19-4.72-3.29-8.09-3.29Z"/></g><g><path class="cls-1" d="M432.49,49.06h3.26l7.39,19.06,7.2-19.06h2.93l-8.74,22.18h-2.98l-9.07-22.18Z"/><path class="cls-1" d="M477.42,67.06c-1.12,1.7-2.5,2.91-4.15,3.65-1.65,.74-3.46,1.1-5.45,1.1-1.7,0-3.23-.29-4.61-.86s-2.56-1.38-3.55-2.42c-.99-1.04-1.75-2.27-2.28-3.7-.53-1.42-.79-3-.79-4.73s.27-3.2,.82-4.61c.54-1.41,1.31-2.63,2.3-3.67,.99-1.04,2.16-1.86,3.5-2.45,1.34-.59,2.83-.89,4.46-.89s3.19,.3,4.49,.89c1.3,.59,2.38,1.38,3.26,2.35,.88,.98,1.54,2.09,1.99,3.34,.45,1.25,.67,2.51,.67,3.79v2.02h-18.62c0,.61,.12,1.39,.36,2.33,.24,.94,.68,1.86,1.32,2.76,.64,.9,1.5,1.66,2.57,2.3,1.07,.64,2.46,.96,4.15,.96,1.47,0,2.9-.35,4.27-1.06,1.38-.7,2.43-1.66,3.17-2.88l2.11,1.78Zm-2.21-8.78c0-.99-.2-1.92-.6-2.78-.4-.86-.94-1.62-1.63-2.28-.69-.66-1.5-1.18-2.45-1.56-.94-.38-1.94-.58-3-.58-1.57,0-2.87,.32-3.91,.96-1.04,.64-1.86,1.38-2.47,2.21-.61,.83-1.04,1.64-1.3,2.42-.26,.78-.38,1.32-.38,1.61h15.74Z"/><path class="cls-1" d="M484.52,55.3c0-.42-.02-.92-.05-1.51-.03-.59-.06-1.19-.07-1.8-.02-.61-.04-1.18-.07-1.7-.03-.53-.05-.94-.05-1.22h2.88c.03,.83,.05,1.63,.07,2.4,.02,.77,.06,1.26,.12,1.49,.74-1.31,1.68-2.38,2.83-3.22,1.15-.83,2.56-1.25,4.22-1.25,.29,0,.57,.02,.84,.07,.27,.05,.55,.1,.84,.17l-.34,2.83c-.38-.13-.75-.19-1.1-.19-1.25,0-2.33,.2-3.24,.6-.91,.4-1.66,.95-2.26,1.66-.59,.7-1.03,1.53-1.32,2.47-.29,.94-.43,1.96-.43,3.05v12.1h-2.88v-15.94Z"/><path class="cls-1" d="M500.55,65.57c.61,1.18,1.5,2.09,2.69,2.71,1.18,.62,2.43,.94,3.74,.94,.61,0,1.22-.1,1.82-.29,.61-.19,1.15-.46,1.63-.82,.48-.35,.87-.78,1.18-1.27,.3-.5,.46-1.06,.46-1.7,0-1.02-.33-1.79-.98-2.3-.66-.51-1.46-.91-2.42-1.2s-2.02-.54-3.17-.74c-1.15-.21-2.21-.53-3.17-.96-.96-.43-1.77-1.03-2.42-1.8-.66-.77-.98-1.86-.98-3.26,0-1.09,.22-2.03,.67-2.83,.45-.8,1.03-1.46,1.75-1.99,.72-.53,1.53-.92,2.42-1.18,.9-.26,1.81-.38,2.74-.38,1.82,0,3.4,.34,4.73,1.01,1.33,.67,2.36,1.73,3.1,3.17l-2.59,1.54c-.54-1.02-1.22-1.8-2.04-2.33-.82-.53-1.88-.79-3.19-.79-.51,0-1.05,.08-1.61,.24-.56,.16-1.06,.38-1.51,.67s-.82,.66-1.13,1.1c-.3,.45-.46,.96-.46,1.54,0,.99,.33,1.73,.98,2.21,.66,.48,1.46,.86,2.42,1.13,.96,.27,2.02,.5,3.17,.7,1.15,.19,2.21,.5,3.17,.94,.96,.43,1.77,1.06,2.42,1.87,.66,.82,.98,1.98,.98,3.48,0,1.15-.22,2.15-.65,3-.43,.85-1.02,1.56-1.78,2.14-.75,.58-1.61,1.01-2.57,1.3s-1.97,.43-3.02,.43c-1.92,0-3.67-.37-5.26-1.1s-2.81-1.87-3.67-3.41l2.54-1.73Z"/><path class="cls-1" d="M540.54,67.06c-1.12,1.7-2.5,2.91-4.15,3.65-1.65,.74-3.46,1.1-5.45,1.1-1.7,0-3.23-.29-4.61-.86s-2.56-1.38-3.55-2.42c-.99-1.04-1.75-2.27-2.28-3.7-.53-1.42-.79-3-.79-4.73s.27-3.2,.82-4.61c.54-1.41,1.31-2.63,2.3-3.67,.99-1.04,2.16-1.86,3.5-2.45,1.34-.59,2.83-.89,4.46-.89s3.19,.3,4.49,.89c1.3,.59,2.38,1.38,3.26,2.35,.88,.98,1.54,2.09,1.99,3.34,.45,1.25,.67,2.51,.67,3.79v2.02h-18.62c0,.61,.12,1.39,.36,2.33,.24,.94,.68,1.86,1.32,2.76,.64,.9,1.5,1.66,2.57,2.3,1.07,.64,2.46,.96,4.15,.96,1.47,0,2.9-.35,4.27-1.06,1.38-.7,2.43-1.66,3.17-2.88l2.11,1.78Zm-2.21-8.78c0-.99-.2-1.92-.6-2.78-.4-.86-.94-1.62-1.63-2.28-.69-.66-1.5-1.18-2.45-1.56-.94-.38-1.94-.58-3-.58-1.57,0-2.87,.32-3.91,.96-1.04,.64-1.86,1.38-2.47,2.21-.61,.83-1.04,1.64-1.3,2.42-.26,.78-.38,1.32-.38,1.61h15.74Z"/></g></g></g></svg>